<?xml version="1.0" encoding="iso-8859-1"?>
<!-- Uploaded to: SVG Repo, www.svgrepo.com, Generator: SVG Repo Mixer Tools -->
<svg fill="#000000" height="800px" width="800px" version="1.1" id="Capa_1" xmlns="http://www.w3.org/2000/svg" xmlns:xlink="http://www.w3.org/1999/xlink" 
	 viewBox="0 0 512 512" xml:space="preserve">
<g>
	<g>
		<path d="M477.174,113.361h-19.7c-4.223,0-7.644,3.423-7.644,7.644c0,4.222,3.422,7.644,7.644,7.644h19.7
			c10.772,0,19.538,8.765,19.538,19.537c0,10.772-8.766,19.537-19.538,19.537h-96.995c-6.745,0-12.233-5.488-12.233-12.233v-14.609
			c0-6.745,5.488-12.232,12.233-12.232h28.371c4.223,0,7.644-3.423,7.644-7.644s-3.422-7.644-7.644-7.644h-28.371
			c-12.086,0-22.37,7.835-26.06,18.69h-10.635v-11.046c0-4.222-3.422-7.644-7.644-7.644h-32.722c-4.223,0-7.644,3.423-7.644,7.644
			v11.046h-14.312c-10.409,0-18.877,8.468-18.877,18.877s8.468,18.877,18.877,18.877h14.313v4.204h-36.248v-9.851
			c0-4.222-3.422-7.644-7.644-7.644h-71.688c-4.223,0-7.644,3.423-7.644,7.644v32.277c0,3.014,1.769,5.746,4.521,6.977l18.243,8.168
			v43.829h-11.398c0.012-2.973-0.005-6.74-0.026-11.557c-0.043-9.494-0.127-18.947-0.127-18.947
			c-0.038-4.195-3.449-7.576-7.644-7.576h-26.052l-20.354-20.354c-1.434-1.434-3.378-2.239-5.406-2.239h-15.213
			c-4.223,0-7.644,3.423-7.644,7.644s3.422,7.644,7.644,7.644h12.047l20.354,20.354c1.434,1.434,3.378,2.239,5.406,2.239h21.636
			c0.063,8.638,0.1,17.103,0.089,22.792h-17.891h-15.675l-22.575-21.983c-1.427-1.389-3.341-2.167-5.333-2.167H49.261v-21.234
			h18.761c4.223,0,7.644-3.423,7.644-7.644s-3.422-7.644-7.644-7.644H49.261v-8.322c0-4.222-3.422-7.644-7.644-7.644H14.863
			c-3.912,0-7.193,2.953-7.603,6.842l-7.218,68.458c-0.227,2.155,0.471,4.305,1.921,5.916c1.449,1.61,3.514,2.53,5.681,2.53h33.972
			c4.223,0,7.644-3.423,7.644-7.644v-8.324h54.481l9.1,8.861H73.553c-4.223,0-7.644,3.423-7.644,7.644V384.21
			c0,4.222,3.422,7.644,7.644,7.644h35.239c4.223,0,7.644-3.423,7.644-7.644s-3.422-7.644-7.644-7.644H81.197v-105.87h61.591v30.996
			c0,4.222,3.422,7.644,7.644,7.644h162.151c4.223,0,7.644-3.423,7.644-7.644v-30.996h17.654v5.434v90.714v9.72H149.564
			c-4.223,0-7.644,3.423-7.644,7.644c0,4.222,3.422,7.644,7.644,7.644h195.962c4.223,0,7.644-3.423,7.644-7.644v-9.72h18.453
			l62.413,23.655c0.878,0.332,1.796,0.496,2.708,0.496c1.531,0,3.05-0.46,4.344-1.354c2.067-1.427,3.301-3.779,3.301-6.291V251.979
			c0-2.511-1.234-4.863-3.301-6.291c-2.064-1.426-4.699-1.747-7.052-0.857l-62.413,23.655H353.17v-5.434
			c0-4.222-3.422-7.644-7.644-7.644h-32.943h-53.357v-46.913h43.891h32.722c4.223,0,7.644-3.423,7.644-7.644v-31.047h13.196
			c4.838,7.916,13.562,13.211,23.499,13.211h96.995c19.204,0,34.827-15.623,34.827-34.826S496.377,113.361,477.174,113.361z
			 M295.474,154.513h-14.313v0.001c-1.977,0-3.588-1.609-3.588-3.588s1.609-3.588,3.588-3.588h14.313V154.513z M33.972,202.379
			v36.523v8.324H16.137l5.607-53.169h12.228V202.379z M380.667,281.407l48.434-18.357v116.872l-48.434-18.357V281.407z
			 M353.171,283.773h12.209v75.426h-12.209V283.773z M187.538,191.48v-19.679h56.399v9.851v19.198v54.557h-33.635v-48.782
			c0-3.014-1.769-5.746-4.521-6.977L187.538,191.48z M304.939,270.696v23.352H158.077v-23.352H304.939z M295.473,193.205h-36.247
			v-3.909h36.247V193.205z M328.195,139.695v22.463v31.047h-17.433v-11.553v-19.493v-22.463v-11.047h17.433V139.695z
			 M352.657,154.514h-9.173v-7.174h9.173V154.514z"/>
	</g>
</g>
</svg>